<mxfile host="app.diagrams.net" modified="2023-08-28T19:20:35.177Z" agent="Mozilla/5.0 (Windows NT 10.0; Win64; x64; rv:109.0) Gecko/20100101 Firefox/116.0" version="21.6.9" etag="qWIwqTMiyJWcke43d5c6" type="github">
  <diagram name="PÃ¡gina-1" id="UBtVbdAsoXFPBuNFBLQl">
    <mxGraphModel>
      <root>
        <mxCell id="0" />
        <mxCell id="1" parent="0" />
      </root>
    </mxGraphModel>
  </diagram>
</mxfile>
